# xmcd
#
# Track frame offsets:
#	150
#	17305
#	38586
#	55775
#
# Disc length: 971 seconds
#
# Revision: 1
# Processed by: cddbd v1.5.1PL0 Copyright (c) Steve Scherf et al.
# Submitted via: CDex 1.50Beta5
#
DISCID=1f03c904
DTITLE=Key Got Crew - Choo Choo Train
DYEAR=2003
DGENRE=Pop
TTITLE0=Choo Choo TRAIN　〜今夜はPartyだがや〜
TTITLE1=Park
TTITLE2=Choo Choo TRAIN　〜今夜はPartyだがや〜
TTITLE3=Choo Choo TRAIN　〜今夜はPartyだがや〜
EXTD=
EXTT0=
EXTT1=
EXTT2=
EXTT3=
PLAYORDER=
